<svg id="filled_outline" height="512" viewBox="0 0 512 512" width="512" xmlns="http://www.w3.org/2000/svg"><path d="m473 352h-434c-8.284 0-15-6.716-15-15v-242c0-8.284 6.716-15 15-15h434c8.284 0 15 6.716 15 15v242c0 8.284-6.716 15-15 15z" fill="#ffda7d"/><path d="m296 416h-80l16-72h48z" fill="#6498d8"/><path d="m336 432h-160c0-17.673 14.327-32 32-32h96c17.673 0 32 14.327 32 32z" fill="#466b97"/><path d="m473 352h-434c-8.284 0-15-6.716-15-15v-17h464v17c0 8.284-6.716 15-15 15z" fill="#466b97"/><path d="m56 104h208v144h-208z" fill="#77d0e8"/><path d="m56 104h208v24h-208z" fill="#4e8897"/><path d="m256 152h208v144h-208z" fill="#6498d8"/><path d="m256 152h208v24h-208z" fill="#466b97"/><g><path d="m160.008 200.001c-2.586 0-5.123-1.251-6.664-3.563-2.451-3.676-1.458-8.644 2.219-11.094l14.015-9.344-14.016-9.344c-3.677-2.45-4.67-7.418-2.219-11.094 2.448-3.677 7.414-4.671 11.094-2.219l24 16c2.226 1.483 3.562 3.981 3.562 6.656s-1.337 5.173-3.562 6.656l-24 16c-1.363.91-2.905 1.346-4.429 1.346z" fill="#466b97"/></g><g><path d="m103.992 200.001c-1.524 0-3.065-.436-4.43-1.345l-24-16c-2.225-1.483-3.562-3.981-3.562-6.656s1.337-5.173 3.562-6.656l24-16c3.676-2.452 8.645-1.457 11.094 2.219 2.451 3.676 1.458 8.644-2.219 11.094l-14.015 9.343 14.016 9.344c3.677 2.45 4.67 7.418 2.219 11.094-1.542 2.312-4.079 3.563-6.665 3.563z" fill="#466b97"/></g><g><path d="m128.006 200.002c-.643 0-1.295-.078-1.946-.241-4.286-1.071-6.893-5.415-5.82-9.701l8-32c1.071-4.286 5.416-6.892 9.701-5.82 4.286 1.071 6.893 5.415 5.82 9.701l-8 32c-.908 3.634-4.17 6.061-7.755 6.061z" fill="#994856"/></g><g><path d="m232 168h-24c-4.418 0-8-3.582-8-8s3.582-8 8-8h24c4.418 0 8 3.582 8 8s-3.582 8-8 8z" fill="#994856"/></g><g><path d="m224 192h-16c-4.418 0-8-3.582-8-8s3.582-8 8-8h16c4.418 0 8 3.582 8 8s-3.582 8-8 8z" fill="#994856"/></g><g><path d="m120 224h-40c-4.418 0-8-3.582-8-8s3.582-8 8-8h40c4.418 0 8 3.582 8 8s-3.582 8-8 8z" fill="#466b97"/></g><g><path d="m160 224h-16c-4.418 0-8-3.582-8-8s3.582-8 8-8h16c4.418 0 8 3.582 8 8s-3.582 8-8 8z" fill="#994856"/></g><g><path d="m232 224h-48c-4.418 0-8-3.582-8-8s3.582-8 8-8h48c4.418 0 8 3.582 8 8s-3.582 8-8 8z" fill="#466b97"/></g><g><path d="m416.008 272.001c-2.586 0-5.123-1.251-6.664-3.563-2.451-3.676-1.458-8.644 2.219-11.094l14.015-9.344-14.016-9.344c-3.677-2.45-4.67-7.418-2.219-11.094 2.449-3.676 7.415-4.672 11.094-2.219l24 16c2.226 1.483 3.562 3.981 3.562 6.656s-1.337 5.173-3.562 6.656l-24 16c-1.363.91-2.905 1.346-4.429 1.346z" fill="#ffda7d"/></g><g><path d="m359.992 272.001c-1.524 0-3.065-.436-4.43-1.345l-24-16c-2.225-1.483-3.562-3.981-3.562-6.656s1.337-5.173 3.562-6.656l24-16c3.675-2.451 8.645-1.457 11.094 2.219 2.451 3.676 1.458 8.644-2.219 11.094l-14.015 9.343 14.016 9.344c3.677 2.45 4.67 7.418 2.219 11.094-1.542 2.312-4.079 3.563-6.665 3.563z" fill="#ffda7d"/></g><g><path d="m384.006 272.002c-.643 0-1.295-.078-1.946-.241-4.286-1.071-6.893-5.415-5.82-9.701l8-32c1.071-4.286 5.416-6.896 9.701-5.82 4.286 1.071 6.893 5.415 5.82 9.701l-8 32c-.908 3.634-4.17 6.061-7.755 6.061z" fill="#ef7086"/></g><g><path d="m328 208h-40c-4.418 0-8-3.582-8-8s3.582-8 8-8h40c4.418 0 8 3.582 8 8s-3.582 8-8 8z" fill="#2a415b"/></g><g><path d="m328 232h-40c-4.418 0-8-3.582-8-8s3.582-8 8-8h40c4.418 0 8 3.582 8 8s-3.582 8-8 8z" fill="#2a415b"/></g><g><path d="m304 256h-16c-4.418 0-8-3.582-8-8s3.582-8 8-8h16c4.418 0 8 3.582 8 8s-3.582 8-8 8z" fill="#2a415b"/></g><g><path d="m320 280h-32c-4.418 0-8-3.582-8-8s3.582-8 8-8h32c4.418 0 8 3.582 8 8s-3.582 8-8 8z" fill="#2a415b"/></g><g><path d="m376 208h-24c-4.418 0-8-3.582-8-8s3.582-8 8-8h24c4.418 0 8 3.582 8 8s-3.582 8-8 8z" fill="#2a415b"/></g><g><path d="m432 208h-32c-4.418 0-8-3.582-8-8s3.582-8 8-8h32c4.418 0 8 3.582 8 8s-3.582 8-8 8z" fill="#2a415b"/></g><g><path d="m473 72h-434c-12.683 0-23 10.317-23 23v242c0 12.683 10.317 23 23 23h181.248l-7.107 32h-5.141c-22.056 0-40 17.944-40 40 0 4.418 3.582 8 8 8h160c4.418 0 8-3.582 8-8 0-22.056-17.944-40-40-40h-5.142l-7.107-32h181.249c12.683 0 23-10.317 23-23v-242c0-12.683-10.317-23-23-23zm-434 16h434c3.859 0 7 3.141 7 7v217h-448v-217c0-3.859 3.141-7 7-7zm287.629 336h-141.258c3.302-9.312 12.199-16 22.629-16h96c10.43 0 19.327 6.688 22.629 16zm-44.16-32h-52.938l7.107-32h38.725zm190.531-48h-434c-3.859 0-7-3.141-7-7v-9h448v9c0 3.859-3.141 7-7 7z"/><path d="m56 256h192v40c0 4.418 3.582 8 8 8h208c4.418 0 8-3.582 8-8v-144c0-4.418-3.582-8-8-8h-192v-40c0-4.418-3.582-8-8-8h-208c-4.418 0-8 3.582-8 8v144c0 4.418 3.582 8 8 8zm208 32v-104h192v104zm192-120h-192v-8h192zm-208-16v88h-184v-104h192v8c-4.418 0-8 3.582-8 8zm8-40v8h-192v-8z"/><path d="m153.344 196.438c1.541 2.312 4.078 3.563 6.664 3.563 1.524 0 3.066-.436 4.43-1.345l24-16c2.226-1.483 3.562-3.981 3.562-6.656s-1.337-5.173-3.562-6.656l-24-16c-3.68-2.452-8.646-1.458-11.094 2.219-2.451 3.676-1.458 8.644 2.219 11.094l14.015 9.343-14.016 9.344c-3.676 2.45-4.669 7.418-2.218 11.094z"/><path d="m75.562 182.656 24 16c1.364.909 2.905 1.345 4.43 1.345 2.586 0 5.123-1.251 6.664-3.563 2.451-3.676 1.458-8.644-2.219-11.094l-14.015-9.344 14.016-9.344c3.677-2.45 4.67-7.418 2.219-11.094-2.449-3.676-7.418-4.671-11.094-2.219l-24 16c-2.226 1.484-3.563 3.982-3.563 6.657s1.337 5.173 3.562 6.656z"/><path d="m137.94 152.239c-4.285-1.071-8.63 1.534-9.701 5.82l-8 32c-1.072 4.286 1.534 8.63 5.82 9.701.651.163 1.304.241 1.946.241 3.585 0 6.847-2.427 7.755-6.062l8-32c1.073-4.285-1.533-8.628-5.82-9.7z"/><path d="m232 152h-24c-4.418 0-8 3.582-8 8s3.582 8 8 8h24c4.418 0 8-3.582 8-8s-3.582-8-8-8z"/><path d="m224 192c4.418 0 8-3.582 8-8s-3.582-8-8-8h-16c-4.418 0-8 3.582-8 8s3.582 8 8 8z"/><path d="m120 208h-40c-4.418 0-8 3.582-8 8s3.582 8 8 8h40c4.418 0 8-3.582 8-8s-3.582-8-8-8z"/><path d="m160 208h-16c-4.418 0-8 3.582-8 8s3.582 8 8 8h16c4.418 0 8-3.582 8-8s-3.582-8-8-8z"/><path d="m232 208h-48c-4.418 0-8 3.582-8 8s3.582 8 8 8h48c4.418 0 8-3.582 8-8s-3.582-8-8-8z"/><path d="m444.438 241.344-24-16c-3.679-2.453-8.645-1.457-11.094 2.219-2.451 3.676-1.458 8.644 2.219 11.094l14.015 9.343-14.016 9.344c-3.677 2.45-4.67 7.418-2.219 11.094 1.541 2.312 4.078 3.563 6.664 3.563 1.524 0 3.066-.436 4.43-1.345l24-16c2.226-1.483 3.562-3.981 3.562-6.656s-1.336-5.173-3.561-6.656z"/><path d="m366.656 227.562c-2.449-3.676-7.419-4.67-11.094-2.219l-24 16c-2.225 1.484-3.562 3.982-3.562 6.657s1.337 5.173 3.562 6.656l24 16c1.364.909 2.905 1.345 4.43 1.345 2.586 0 5.123-1.251 6.664-3.563 2.451-3.676 1.458-8.644-2.219-11.094l-14.015-9.344 14.016-9.344c3.676-2.45 4.669-7.418 2.218-11.094z"/><path d="m393.94 224.239c-4.285-1.075-8.63 1.534-9.701 5.82l-8 32c-1.072 4.286 1.534 8.63 5.82 9.701.651.163 1.304.241 1.946.241 3.585 0 6.847-2.427 7.755-6.062l8-32c1.073-4.285-1.533-8.628-5.82-9.7z"/><path d="m288 208h40c4.418 0 8-3.582 8-8s-3.582-8-8-8h-40c-4.418 0-8 3.582-8 8s3.582 8 8 8z"/><path d="m288 232h40c4.418 0 8-3.582 8-8s-3.582-8-8-8h-40c-4.418 0-8 3.582-8 8s3.582 8 8 8z"/><path d="m288 256h16c4.418 0 8-3.582 8-8s-3.582-8-8-8h-16c-4.418 0-8 3.582-8 8s3.582 8 8 8z"/><path d="m320 264h-32c-4.418 0-8 3.582-8 8s3.582 8 8 8h32c4.418 0 8-3.582 8-8s-3.582-8-8-8z"/><path d="m384 200c0-4.418-3.582-8-8-8h-24c-4.418 0-8 3.582-8 8s3.582 8 8 8h24c4.418 0 8-3.582 8-8z"/><path d="m440 200c0-4.418-3.582-8-8-8h-32c-4.418 0-8 3.582-8 8s3.582 8 8 8h32c4.418 0 8-3.582 8-8z"/></g></svg>